<svg width="168" height="44" viewBox="0 0 168 44" fill="none" xmlns="http://www.w3.org/2000/svg">
<rect width="168" height="44" rx="20" fill="#C4C4C4"/>
<path d="M125.683 10.05L138.2 15.4167L125.667 13.75L125.683 10.05ZM138.183 24.5833L125.667 29.95V26.25L138.183 24.5833ZM122.35 5L122.333 16.6667L147.333 20L122.333 23.3333L122.35 35L157.333 20L122.35 5Z" fill="black"/>
<path d="M43.7441 13.8096V17.9316H43.4189C43.3135 17.1406 43.123 16.5107 42.8477 16.042C42.5781 15.5732 42.1914 15.2012 41.6875 14.9258C41.1836 14.6504 40.6621 14.5127 40.123 14.5127C39.5137 14.5127 39.0098 14.7002 38.6113 15.0752C38.2129 15.4443 38.0137 15.8662 38.0137 16.3408C38.0137 16.7041 38.1396 17.0352 38.3916 17.334C38.7549 17.7734 39.6191 18.3594 40.9844 19.0918C42.0977 19.6895 42.8564 20.1494 43.2607 20.4717C43.6709 20.7881 43.9844 21.1631 44.2012 21.5967C44.4238 22.0303 44.5352 22.4844 44.5352 22.959C44.5352 23.8613 44.1836 24.6406 43.4805 25.2969C42.7832 25.9473 41.8838 26.2725 40.7822 26.2725C40.4365 26.2725 40.1113 26.2461 39.8066 26.1934C39.625 26.1641 39.2471 26.0586 38.6729 25.877C38.1045 25.6895 37.7441 25.5957 37.5918 25.5957C37.4453 25.5957 37.3281 25.6396 37.2402 25.7275C37.1582 25.8154 37.0967 25.9971 37.0557 26.2725H36.7305V22.1855H37.0557C37.208 23.041 37.4131 23.6826 37.6709 24.1104C37.9287 24.5322 38.3213 24.8838 38.8486 25.165C39.3818 25.4463 39.9648 25.5869 40.5977 25.5869C41.3301 25.5869 41.9072 25.3936 42.3291 25.0068C42.7568 24.6201 42.9707 24.1631 42.9707 23.6357C42.9707 23.3428 42.8887 23.0469 42.7246 22.748C42.5664 22.4492 42.3174 22.1709 41.9775 21.9131C41.749 21.7373 41.125 21.3652 40.1055 20.7969C39.0859 20.2227 38.3594 19.7656 37.9258 19.4258C37.498 19.0859 37.1729 18.7109 36.9502 18.3008C36.7275 17.8906 36.6162 17.4395 36.6162 16.9473C36.6162 16.0918 36.9443 15.3564 37.6006 14.7412C38.2568 14.1201 39.0918 13.8096 40.1055 13.8096C40.7383 13.8096 41.4092 13.9648 42.1182 14.2754C42.4463 14.4219 42.6777 14.4951 42.8125 14.4951C42.9648 14.4951 43.0879 14.4512 43.1816 14.3633C43.2812 14.2695 43.3604 14.085 43.4189 13.8096H43.7441ZM47.4268 20.9814C47.4209 22.1768 47.7109 23.1143 48.2969 23.7939C48.8828 24.4736 49.5713 24.8135 50.3623 24.8135C50.8896 24.8135 51.3467 24.6699 51.7334 24.3828C52.126 24.0898 52.4541 23.5918 52.7178 22.8887L52.9902 23.0645C52.8672 23.8672 52.5098 24.5996 51.918 25.2617C51.3262 25.918 50.585 26.2461 49.6943 26.2461C48.7275 26.2461 47.8984 25.8711 47.207 25.1211C46.5215 24.3652 46.1787 23.3516 46.1787 22.0801C46.1787 20.7031 46.5303 19.6309 47.2334 18.8633C47.9424 18.0898 48.8301 17.7031 49.8965 17.7031C50.7988 17.7031 51.54 18.002 52.1201 18.5996C52.7002 19.1914 52.9902 19.9854 52.9902 20.9814H47.4268ZM47.4268 20.4717H51.1533C51.124 19.9561 51.0625 19.5928 50.9688 19.3818C50.8223 19.0537 50.6025 18.7959 50.3096 18.6084C50.0225 18.4209 49.7207 18.3271 49.4043 18.3271C48.918 18.3271 48.4814 18.5176 48.0947 18.8984C47.7139 19.2734 47.4912 19.7979 47.4268 20.4717ZM56.418 19.417C57.3613 18.2803 58.2607 17.7119 59.1162 17.7119C59.5557 17.7119 59.9336 17.8232 60.25 18.0459C60.5664 18.2627 60.8184 18.623 61.0059 19.127C61.1348 19.4785 61.1992 20.0176 61.1992 20.7441V24.1807C61.1992 24.6904 61.2402 25.0361 61.3223 25.2178C61.3867 25.3643 61.4893 25.4785 61.6299 25.5605C61.7764 25.6426 62.043 25.6836 62.4297 25.6836V26H58.4482V25.6836H58.6152C58.9902 25.6836 59.251 25.6279 59.3975 25.5166C59.5498 25.3994 59.6553 25.2295 59.7139 25.0068C59.7373 24.9189 59.749 24.6436 59.749 24.1807V20.8848C59.749 20.1523 59.6523 19.6221 59.459 19.2939C59.2715 18.96 58.9521 18.793 58.501 18.793C57.8037 18.793 57.1094 19.1738 56.418 19.9355V24.1807C56.418 24.7256 56.4502 25.0625 56.5146 25.1914C56.5967 25.3613 56.708 25.4873 56.8486 25.5693C56.9951 25.6455 57.2881 25.6836 57.7275 25.6836V26H53.7461V25.6836H53.9219C54.332 25.6836 54.6074 25.5811 54.748 25.376C54.8945 25.165 54.9678 24.7666 54.9678 24.1807V21.1924C54.9678 20.2256 54.9443 19.6367 54.8975 19.4258C54.8564 19.2148 54.7891 19.0713 54.6953 18.9951C54.6074 18.9189 54.4873 18.8809 54.335 18.8809C54.1709 18.8809 53.9746 18.9248 53.7461 19.0127L53.6143 18.6963L56.04 17.7119H56.418V19.417ZM68.7578 25.0947C68.3652 25.5049 67.9814 25.8008 67.6064 25.9824C67.2314 26.1582 66.8271 26.2461 66.3936 26.2461C65.5146 26.2461 64.7471 25.8799 64.0908 25.1475C63.4346 24.4092 63.1064 23.4629 63.1064 22.3086C63.1064 21.1543 63.4697 20.0996 64.1963 19.1445C64.9229 18.1836 65.8574 17.7031 67 17.7031C67.709 17.7031 68.2949 17.9287 68.7578 18.3799V16.8945C68.7578 15.9746 68.7344 15.4092 68.6875 15.1982C68.6465 14.9873 68.5791 14.8438 68.4854 14.7676C68.3916 14.6914 68.2744 14.6533 68.1338 14.6533C67.9814 14.6533 67.7793 14.7002 67.5273 14.7939L67.4131 14.4863L69.8125 13.502H70.208V22.8096C70.208 23.7529 70.2285 24.3301 70.2695 24.541C70.3164 24.7461 70.3867 24.8896 70.4805 24.9717C70.5801 25.0537 70.6943 25.0947 70.8232 25.0947C70.9814 25.0947 71.1924 25.0449 71.4561 24.9453L71.5527 25.2529L69.1621 26.2461H68.7578V25.0947ZM68.7578 24.4795V20.3311C68.7227 19.9326 68.6172 19.5693 68.4414 19.2412C68.2656 18.9131 68.0312 18.667 67.7383 18.5029C67.4512 18.333 67.1699 18.248 66.8945 18.248C66.3789 18.248 65.9189 18.4795 65.5146 18.9424C64.9814 19.5518 64.7148 20.4424 64.7148 21.6143C64.7148 22.7979 64.9727 23.7061 65.4883 24.3389C66.0039 24.9658 66.5781 25.2793 67.2109 25.2793C67.7441 25.2793 68.2598 25.0127 68.7578 24.4795Z" fill="black"/>
</svg>
